Coordinates
version=1
nRows=21
nColumns=22
inDegrees=yes

Units are S.I. units (second, meters, Newtons, ...)
If the header above contains a line with 'inDegrees', this indicates whether rotational values are in degrees (yes) or radians (no).

endheader
time	pelvis_tilt	pelvis_list	pelvis_rotation	pelvis_tx	pelvis_ty	pelvis_tz	hip_flexion_r	hip_adduction_r	hip_rotation_r	knee_angle_r	ankle_angle_r	subtalar_angle_r	hip_flexion_l	hip_adduction_l	hip_rotation_l	knee_angle_l	ankle_angle_l	subtalar_angle_l	lumbar_extension	lumbar_bending	lumbar_rotation
      1.82000000	     -3.25056843	     -3.58670590	    121.92060631	     -0.57924853	      1.04686934	      0.78658074	     -9.93949813	      5.32265516	     13.61465379	    -16.35234062	     18.61090652	    -11.28998107	     22.18590832	      0.52408334	     13.21917248	     -7.33975486	      6.71342160	     14.58814417	     -3.38980063	     -2.46755326	      1.66471877
      1.83000000	     -3.21874637	     -3.56386771	    121.19506112	     -0.58504930	      1.04595720	      0.77846166	    -10.31038418	      5.18845104	     14.02719494	    -16.74192479	     18.39756828	    -11.15853052	     22.46496969	      0.63172459	     13.00123033	     -8.10779045	      6.95562758	     14.51372349	     -3.30912435	     -2.44629740	      1.73632789
      1.84000000	     -3.15366984	     -3.55657736	    120.46468745	     -0.59089494	      1.04514229	      0.77011243	    -10.63874929	      5.06686177	     14.44764740	    -17.15998501	     18.10040218	    -10.84598788	     22.77750885	      0.72942332	     12.69965638	     -9.11946986	      7.05269325	     14.14867726	     -3.17671045	     -2.40991890	      1.83315065
      1.85000000	     -3.08927682	     -3.53371390	    119.72249279	     -0.59675885	      1.04449295	      0.76149953	    -10.96876547	      4.94935803	     14.89587321	    -17.61535048	     17.73544436	    -10.51330686	     23.04051248	      0.81822844	     12.40565732	    -10.28781094	      7.04048569	     13.66076843	     -3.04470403	     -2.37505686	      1.94140474
      1.86000000	     -3.03120179	     -3.53339330	    118.98701356	     -0.60268230	      1.04399449	      0.75263516	    -11.24099469	      4.81130135	     15.28219275	    -18.15113040	     17.26915865	     -9.99150191	     23.26069533	      0.92917418	     12.21841283	    -11.53576023	      6.86968979	     12.97257550	     -2.87598687	     -2.36973707	      2.03041002
      1.87000000	     -2.99686498	     -3.54162807	    118.23351050	     -0.60861315	      1.04369007	      0.74351383	    -11.47303961	      4.64790545	     15.67667883	    -18.77509497	     16.72935847	     -9.35438669	     23.40480790	      1.05921907	     12.16812347	    -12.81122655	      6.55698651	     12.30151038	     -2.69517255	     -2.40319755	      2.12580377
      1.88000000	     -2.99795167	     -3.56538409	    117.46640185	     -0.61455238	      1.04361215	      0.73413669	    -11.63960739	      4.44837969	     16.03335029	    -19.52297461	     16.06199043	     -8.53407679	     23.45999348	      1.22356221	     12.28175766	    -14.05452800	      6.14242825	     11.65224845	     -2.49944515	     -2.48894306	      2.21479024
      1.89000000	     -3.03844498	     -3.59752956	    116.66949849	     -0.62044134	      1.04378153	      0.72452790	    -11.72850045	      4.21608932	     16.37136876	    -20.42252173	     15.28193366	     -7.53589532	     23.42554467	      1.41204608	     12.51452868	    -15.24187161	      5.68677907	     11.08893318	     -2.30224590	     -2.62778469	      2.31438878
      1.90000000	     -3.13031899	     -3.63186276	    115.90520558	     -0.62638531	      1.04421856	      0.71472443	    -11.75123864	      3.95154699	     16.61250878	    -21.46340597	     14.33752873	     -6.24638656	     23.30199965	      1.65667187	     12.86807533	    -16.36041039	      5.26927824	     10.54732857	     -2.11374710	     -2.81878509	      2.32496577
      1.91000000	     -3.25725898	     -3.65292375	    115.11665244	     -0.63223023	      1.04491122	      0.70475166	    -11.66957258	      3.67422850	     16.78113168	    -22.70738742	     13.22386511	     -4.72915684	     23.08785682	      1.89928020	     13.21456514	    -17.39325810	      4.96427613	     10.06321699	     -1.94866602	     -3.04381653	      2.34102594
      1.92000000	     -3.40917722	     -3.65932262	    114.31648854	     -0.63797487	      1.04583042	      0.69465836	    -11.46730027	      3.39596939	     16.85903886	    -24.15963218	     11.91243117	     -2.95648450	     22.78577580	      2.12706758	     13.50275073	    -18.31679054	      4.78443046	      9.60806513	     -1.80784828	     -3.28720915	      2.33914512
      1.93000000	     -3.57610232	     -3.65889057	    113.49210538	     -0.64356116	      1.04692423	      0.68448481	    -11.11775663	      3.11963256	     16.84962334	    -25.82100480	     10.37674267	     -0.93879939	     22.40727491	      2.32106067	     13.66093051	    -19.11618117	      4.73213443	      9.17578277	     -1.68167216	     -3.54560072	      2.33630554
      1.94000000	     -3.75182109	     -3.65587840	    112.64115951	     -0.64897218	      1.04813867	      0.67432238	    -10.59515128	      2.84690068	     16.75062510	    -27.69864951	      8.62934921	      1.26011027	     21.95292011	      2.47464718	     13.65742399	    -19.76687185	      4.82040540	      8.75852689	     -1.57211128	     -3.80646617	      2.32321195
      1.95000000	     -3.93505761	     -3.65400700	    111.78161612	     -0.65421855	      1.04942027	      0.66425174	     -9.89088365	      2.57488095	     16.54070325	    -29.76982770	      6.69908395	      3.57638265	     21.42455803	      2.59675112	     13.49290640	    -20.25532659	      5.06204919	      8.33624602	     -1.48321313	     -4.06602835	      2.26219102
      1.96000000	     -4.14590171	     -3.68291414	    110.84620614	     -0.65917599	      1.05069961	      0.65432784	     -8.96398396	      2.26405792	     16.29160356	    -32.03739063	      4.67428260	      5.79964206	     20.83783849	      2.69224664	     13.07354981	    -20.55984414	      5.36840584	      7.91978266	     -1.39619604	     -4.35915631	      2.24564105
      1.97000000	     -4.39297781	     -3.73403725	    109.86956835	     -0.66389535	      1.05195447	      0.64462130	     -7.83925309	      1.90985499	     15.98574675	    -34.44710563	      2.63930110	      7.78985107	     20.18732954	      2.78843292	     12.44669178	    -20.68309607	      5.72464838	      7.50655067	     -1.32859520	     -4.68611058	      2.21852121
      1.98000000	     -4.68510674	     -3.80307226	    108.86014203	     -0.66838378	      1.05315790	      0.63516742	     -6.53754769	      1.50456001	     15.63662968	    -36.95059261	      0.72186024	      9.39647650	     19.47329614	      2.90559483	     11.64560692	    -20.63393299	      6.09887716	      7.10723965	     -1.28907249	     -5.05371871	      2.17232704
      1.99000000	     -5.04262137	     -3.87864822	    107.82499695	     -0.67267259	      1.05428135	      0.62597678	     -5.09661029	      1.02702048	     15.24689845	    -39.50111727	     -0.89191758	     10.42600661	     18.70773108	      3.06967333	     10.64582593	    -20.46038095	      6.51575273	      6.74311153	     -1.29535121	     -5.47674366	      2.07781430
      2.00000000	     -5.46767765	     -3.92139609	    106.79425132	     -0.67680722	      1.05542481	      0.61700759	     -3.59817699	      0.49361797	     14.84072940	    -42.01458110	     -2.16973073	     10.79698335	     17.82504537	      3.29974633	      9.62384132	    -20.12068825	      6.87710626	      6.50637395	     -1.38148444	     -5.94806864	      1.93913494
      2.01000000	     -5.89737548	     -3.95968311	    105.80833299	     -0.68085787	      1.05647060	      0.60829505	     -2.01516280	     -0.04444889	     14.40511065	    -44.45490224	     -2.94385788	     10.86987866	     16.94178369	      3.56164008	      8.56770043	    -19.73240234	      7.27088452	      6.23272901	     -1.49485217	     -6.40536125	      1.68562817
      2.02000000	     -6.29677880	     -4.01380178	    104.88415265	     -0.68484944	      1.05740177	      0.59981594	     -0.34532851	     -0.55645072	     13.92732993	    -46.77606279	     -3.22981268	     10.36223206	     16.09972796	      3.83569059	      7.54532322	    -19.31840947	      7.63144620	      5.85539592	     -1.59476716	     -6.81864073	      1.33275748
